<svg width="31" height="31" viewBox="0 0 31 31" fill="none" xmlns="http://www.w3.org/2000/svg">
<circle cx="15.5" cy="15.4999" r="15.5" fill="#28666E"/>
<path d="M8.59375 8.99994C7.71387 8.99994 7 9.7278 7 10.6249C7 11.1361 7.23574 11.6169 7.6375 11.9249L14.8625 17.4499C15.241 17.7377 15.759 17.7377 16.1375 17.4499L23.3625 11.9249C23.7643 11.6169 24 11.1361 24 10.6249C24 9.7278 23.2861 8.99994 22.4062 8.99994H8.59375ZM7 12.7916V19.8333C7 21.0283 7.95293 21.9999 9.125 21.9999H21.875C23.0471 21.9999 24 21.0283 24 19.8333V12.7916L16.775 18.3166C16.018 18.8955 14.982 18.8955 14.225 18.3166L7 12.7916Z" fill="white"/>
</svg>
